<svg xmlns="http://www.w3.org/2000/svg" viewBox="0 0 500 500"><defs><style>.cls-1{fill:#fff;}</style></defs><title>Recurso 7</title><g id="Capa_2" data-name="Capa 2"><g id="Capa_3" data-name="Capa 3"><g id="Capa_1-2" data-name="Capa 1"><path class="cls-1" d="M406.81,171.36c75.9-26.76,95.72-146.58-7-167.47C380.64-1.06,363.88,1,343.79.57c-59.1,0-119.3.44-178,.11-20.08,3.86-47.31,36.84-17.37,57.05,3.24,2.06,5.7,1.85,11,1.8l158.32.86,40,.22c13.35-1.51,25.27,2.59,29.9,19,4.66,18.89-16.52,36.69-28.86,37.52l-117,.93-145,1.16c-25.08,1.14-56-7-66.46,27.61-2.59,10.28,1.9,26.38,16.43,30.29l220.54,1.16c33.67-1.89,40.68,41.6,2.22,56.89-4.73,1.42-1.9.52-6.7.81l-97.9,1.11c-34.89,1.28-45.69,29.73-47.15,46.85-3.43,18.82-12.42,68-13.11,71.78,48.57.11,110-1.23,163.24-1.61,56,.77,121.33,1.42,160.65-54.89C462.11,253.47,458.35,194.48,406.81,171.36Z" transform="translate(0 -0.5)"/><path class="cls-1" d="M.12,491.63l15.51-94.85a8.31,8.31,0,0,1,2.8-5,7.46,7.46,0,0,1,5.07-2.05h81.43a5.13,5.13,0,0,1,4.35,2.13,6.42,6.42,0,0,1,1.11,5.1l-1.17,7.16a8.61,8.61,0,0,1-2.77,5.07,7.27,7.27,0,0,1-5,2.09H39.89l-4.38,26.82H85.58a5.13,5.13,0,0,1,4.35,2.13,6.35,6.35,0,0,1,1.12,5l-1.18,7.24a8.55,8.55,0,0,1-2.77,5.06,7.3,7.3,0,0,1-5,2.1H32l-5.23,32a8.74,8.74,0,0,1-2.8,5.21,7.28,7.28,0,0,1-5,2.1H5.64a5.27,5.27,0,0,1-4.39-2.1A6.41,6.41,0,0,1,.12,491.63Z" transform="translate(0 -0.5)"/><path class="cls-1" d="M164.31,434.79l-10.8-.45q-9.54,0-20.07,11.27l-8,48.68a5.54,5.54,0,0,1-1.78,3.35,4.78,4.78,0,0,1-3.29,1.3H104.59a3.38,3.38,0,0,1-2.89-1.3,4.2,4.2,0,0,1-.66-3.35l12.12-74.12a5.74,5.74,0,0,1,1.79-3.39,4.75,4.75,0,0,1,3.29-1.34h15.82a3.36,3.36,0,0,1,2.89,1.34,4.32,4.32,0,0,1,.65,3.39l-.78,4.8a71.69,71.69,0,0,1,15.24-8.34q7.11-2.72,17.92-2.71a3.49,3.49,0,0,1,2.93,1.33,4.17,4.17,0,0,1,.69,3.32l-1.89,11.58a5.55,5.55,0,0,1-1.79,3.35,4.87,4.87,0,0,1-3.35,1.29Z" transform="translate(0 -0.5)"/><path class="cls-1" d="M186.82,399.52l.42-2.59a10.8,10.8,0,0,1,3.2-6.4,9,9,0,0,1,6.35-2.36h8.76a6.64,6.64,0,0,1,5.56,2.32q1.8,2.33,1.13,6.44l-.42,2.59a10.82,10.82,0,0,1-3.2,6.4,9,9,0,0,1-6.36,2.36h-8.75c-2.5,0-4.35-.78-5.55-2.36S186.38,402.21,186.82,399.52ZM171.6,494.29,183.42,422a5.58,5.58,0,0,1,1.79-3.36,4.79,4.79,0,0,1,3.28-1.29h15.82a3.35,3.35,0,0,1,2.89,1.33,4.2,4.2,0,0,1,.66,3.32L196,494.29a5.54,5.54,0,0,1-1.78,3.35,4.78,4.78,0,0,1-3.29,1.3H175.15a3.4,3.4,0,0,1-2.89-1.3A4.2,4.2,0,0,1,171.6,494.29Z" transform="translate(0 -0.5)"/><path class="cls-1" d="M231,396.93a8.64,8.64,0,0,1,2.81-5.1,7.39,7.39,0,0,1,5.08-2.13h57.43q21.12,0,29,13.1,4.41,7.23,2.56,18.47t-12.74,19.62q12.29,7.85,9.58,24.38t-14.95,25.1a47.63,47.63,0,0,1-28,8.57H221.06a5.29,5.29,0,0,1-4.39-2.1,6.24,6.24,0,0,1-1.15-5.06Zm20.88,35.2h37.78a10.89,10.89,0,0,0,7.6-2.86,13.28,13.28,0,0,0,4-8c.56-3.43.1-6.1-1.37-8s-3.7-2.9-6.66-2.9H255.47Zm-7.56,46.24h40.4a12,12,0,0,0,8.9-3.5,17.12,17.12,0,0,0,4.47-9.6q1-6.11-1.33-9.6c-1.55-2.34-4.13-3.51-7.76-3.51h-40.4Z" transform="translate(0 -0.5)"/><path class="cls-1" d="M338.19,493.45q-8.22-7-6.12-19.8A27.75,27.75,0,0,1,344.64,454q10.47-6.86,25.24-6.85h23.38c1-5.95.49-10.08-1.43-12.42s-5.78-3.51-11.54-3.51-10.07,1.54-12.9,4.61-5.95,4.61-9.34,4.61H347.53a3.45,3.45,0,0,1-2.93-1.33,4.12,4.12,0,0,1-.69-3.32q3.57-21.86,42.07-21.86,16.8,0,25.65,8.11t6.07,25.11L410,494.29a5.66,5.66,0,0,1-1.75,3.35,4.73,4.73,0,0,1-3.32,1.3H391.29a3.36,3.36,0,0,1-2.89-1.34,4.17,4.17,0,0,1-.66-3.31l.39-2.36A46.85,46.85,0,0,1,361,500.5Q346.4,500.46,338.19,493.45ZM360.52,467a10.41,10.41,0,0,0-4,6.7,7.52,7.52,0,0,0,1.86,6.78c1.69,1.78,4.34,2.67,8,2.67q10.88,0,22.1-6.86l1.94-11.88H368.75A12.86,12.86,0,0,0,360.52,467Z" transform="translate(0 -0.5)"/><path class="cls-1" d="M490.63,434.79l-10.8-.45q-9.54,0-20.07,11.27l-8,48.68a5.54,5.54,0,0,1-1.78,3.35,4.78,4.78,0,0,1-3.29,1.3H430.91a3.4,3.4,0,0,1-2.89-1.3,4.2,4.2,0,0,1-.66-3.35l12.12-74.12a5.74,5.74,0,0,1,1.79-3.39,4.75,4.75,0,0,1,3.29-1.34h15.82a3.35,3.35,0,0,1,2.89,1.34,4.32,4.32,0,0,1,.65,3.39l-.78,4.8a71.69,71.69,0,0,1,15.24-8.34q7.11-2.72,17.92-2.71a3.49,3.49,0,0,1,2.93,1.33,4.13,4.13,0,0,1,.69,3.32L498,430.15a5.59,5.59,0,0,1-1.78,3.35,4.91,4.91,0,0,1-3.36,1.29Z" transform="translate(0 -0.5)"/></g></g></g></svg>