<svg height="512" viewBox="0 0 58 59" width="512" xmlns="http://www.w3.org/2000/svg">
	<g id="Page-1" fill="none" fill-rule="evenodd">
		<g id="035---Maps" fill-rule="nonzero">
			<path id="Shape" d="m56.85 8.62c-2.1018195-4.65909598-6.7387555-7.65420726-11.85-7.65420726s-9.7481805 2.99511128-11.85 7.65420726c-.7613784 1.6629552-1.1536982 3.4710376-1.15 5.3.0006495 1.9477697.2356722 3.8883851.7 5.78.7175798 2.8126076 1.8788089 5.4928864 3.44 7.94.1.18.22.33.33.5.904464 1.3644601 1.907117 2.6612247 3 3.88 1.6454348 1.8673895 3.5010659 3.5384642 5.53 4.98.9746391-.6778443 1.9033363-1.4194658 2.78-2.22 2.1899228-1.9573621 4.1220831-4.185227 5.75-6.63.1191844-.16042.2293545-.3273444.33-.5 1.2041346-1.8996381 2.1744907-3.9377215 2.89-6.07.8258966-2.4694954 1.2479859-5.056059 1.25-7.66.0036982-1.8289624-.3886216-3.6370448-1.15-5.3zm-11.85 13.38c-4.418278 0-8-3.581722-8-8s3.581722-8 8-8 8 3.581722 8 8c0 2.1217319-.8428547 4.1565632-2.3431458 5.6568542-1.500291 1.5002911-3.5351223 2.3431458-5.6568542 2.3431458z" fill="#f55d2c" />
			<path id="Shape" d="m45 23c-4.9705627 0-9-4.0294373-9-9 0-4.97056275 4.0294373-9 9-9s9 4.02943725 9 9c0 2.3869484-.9482116 4.6761336-2.636039 6.363961s-3.9770126 2.636039-6.363961 2.636039zm0-16c-3.8659932 0-7 3.1340068-7 7s3.1340068 7 7 7 7-3.1340068 7-7c0-1.8565154-.7374979-3.6369928-2.0502525-4.94974747-1.3127547-1.31275465-3.0932321-2.05025253-4.9497475-2.05025253z" fill="#c03a2b" />
		</g>
	</g>
</svg>
