<svg id="Layer_1" enable-background="new 0 0 497 497" height="512" viewBox="0 0 497 497" width="512" xmlns="http://www.w3.org/2000/svg">
	<g>
		<path d="m248.5 0v497c4.966 0 9.355-2.424 12.085-6.141.021 0 140.047-191.036 140.047-191.036 22.853-31.196 36.368-69.679 36.368-111.323 0-104.106-84.394-188.5-188.5-188.5z" fill="#f0224e" />
		<path d="m258.662 490.859c.017 0 117.759-191.036 117.759-191.036 19.215-31.196 30.579-69.679 30.579-111.323 0-104.106-70.963-188.5-158.5-188.5-104.106 0-188.5 84.394-188.5 188.5 0 41.644 13.515 80.127 36.383 111.322-.016 0 140.011 191.036 140.011 191.036 2.751 3.718 7.14 6.141 12.106 6.141 4.176.001 7.866-2.423 10.162-6.14z" fill="#ff4c50" />
		<circle cx="248.5" cy="188.5" fill="#fff" r="128.5" />
	</g>
</svg>
