<svg xmlns="http://www.w3.org/2000/svg" xmlns:xlink="http://www.w3.org/1999/xlink" viewBox="0 0 500 500"><defs><style>.cls-1{fill:url(#Degradado_sin_nombre_179);}</style><linearGradient id="Degradado_sin_nombre_179" x1="0.5" y1="250.5" x2="500.5" y2="250.5" gradientUnits="userSpaceOnUse"><stop offset="0" stop-color="#dc2c28"/><stop offset="0.15" stop-color="#de3532"/><stop offset="0.69" stop-color="#e45150"/><stop offset="1" stop-color="#e65c5b"/></linearGradient></defs><title>Recurso 6</title><g id="Capa_2" data-name="Capa 2"><g id="Capa_3" data-name="Capa 3"><g id="Capa_1-2" data-name="Capa 1"><path class="cls-1" d="M428.39,241c86.1-37.67,108.59-206.33-8-235.73C398.7-1.69,379.69,1.21,356.9.6c-67-.06-135.34.62-201.9.16-22.79,5.43-53.68,51.86-19.71,80.3,3.67,2.89,6.46,2.61,12.45,2.53l179.6,1.22,45.39.31c15.15-2.13,28.67,3.63,33.93,26.71,5.28,26.59-18.74,51.64-32.74,52.81L241.16,166,76.69,167.59c-28.46,1.6-63.54-9.83-75.4,38.87-2.94,14.46,2.16,37.12,18.64,42.63l250.18,1.63c38.2-2.66,46.15,58.55,2.52,80.08-5.36,2-2.15.74-7.6,1.14L154,333.5c-39.57,1.8-51.83,41.85-53.48,65.95-3.9,26.49-14.1,95.77-14.87,101,55.09.15,124.77-1.74,185.17-2.27,63.57,1.09,137.65,2,182.25-77.26C491.12,356.59,486.86,273.55,428.39,241Z" transform="translate(-0.5 -0.5)"/></g></g></g></svg>